<?xml version="1.0" standalone="no"?>
<!DOCTYPE svg PUBLIC "-//W3C//DTD SVG 20010904//EN"
 "http://www.w3.org/TR/2001/REC-SVG-20010904/DTD/svg10.dtd">
<svg version="1.0" xmlns="http://www.w3.org/2000/svg"
 width="512.000000pt" height="512.000000pt" viewBox="0 0 512.000000 512.000000"
 preserveAspectRatio="xMidYMid meet">
<metadata>
Created by potrace 1.11, written by Peter Selinger 2001-2013
</metadata>
<g transform="translate(0.000000,512.000000) scale(0.100000,-0.100000)"
fill="#000000" stroke="none">
<path d="M1565 4292 c-28 -3 -63 -25 -110 -68 -11 -11 -58 -53 -105 -94 -252
-222 -428 -392 -526 -506 -287 -335 -489 -712 -497 -930 -2 -54 2 -67 32 -115
160 -260 413 -505 638 -618 138 -69 322 -123 354 -102 26 16 26 16 32 -31 17
-124 51 -228 115 -352 117 -227 309 -398 570 -505 81 -33 195 -67 259 -76 23
-3 57 -8 75 -11 42 -6 170 -5 223 1 164 21 331 81 473 171 59 38 62 39 62 20
0 -15 73 -66 155 -109 196 -101 377 -142 640 -142 157 0 245 8 372 35 53 11
98 20 100 20 9 0 78 81 111 130 112 168 218 539 248 861 3 35 8 80 10 99 5 40
5 389 0 500 -2 41 -7 147 -11 235 -5 88 -8 168 -9 179 0 24 -79 112 -106 119
-27 7 -58 -26 -66 -69 -5 -29 -10 -32 -49 -36 -139 -16 -144 -162 -13 -388 30
-51 35 -80 44 -236 7 -115 -1 -154 -32 -154 -9 0 -45 -14 -80 -30 -146 -70
-265 -228 -351 -465 -15 -40 -23 -51 -44 -53 -32 -4 -40 6 -69 88 -38 107
-101 189 -174 227 -65 34 -171 46 -240 29 -26 -6 -26 -6 -27 56 -1 70 -2 82
-25 187 -83 383 -366 681 -771 810 -177 57 -365 69 -546 36 -51 -10 -188 -56
-251 -85 -75 -35 -197 -114 -251 -163 -47 -43 -51 -44 -66 -15 -23 43 -104
120 -154 146 -44 24 -61 27 -145 27 -87 -1 -102 -4 -180 -38 -47 -20 -91 -37
-96 -37 -6 0 -16 10 -23 23 -11 20 -7 34 27 108 108 231 126 418 55 579 -14
31 -22 64 -19 77 5 17 111 113 206 186 26 20 64 35 105 42 109 18 252 103 273
163 11 32 -5 91 -33 122 -16 18 -16 21 4 63 12 24 19 51 16 60 -11 28 -59 39
-130 29z m1073 -1818 c235 -78 367 -271 357 -524 -13 -348 -331 -612 -644
-536 -200 49 -329 172 -387 371 -53 183 13 412 161 560 81 81 170 130 272 149
87 16 150 10 241 -20z"/>
</g>
</svg>
